<svg enable-background="new 0 0 41 40" viewBox="0 0 41 40" xmlns="http://www.w3.org/2000/svg"><g style="fill:none;stroke:#1c2754;stroke-width:1.5;stroke-linecap:round;stroke-linejoin:round;stroke-miterlimit:10"><path d="m4.325 39.062s.602-9.279 4.464-11.937c2.558-1.705 6.771-.953 6.771-.953l4.414 3.862v9.028"/><path d="m35.675 39.062s-.602-9.279-4.464-11.937c-2.558-1.705-6.771-.953-6.771-.953l-4.414 3.862v9.028"/><path d="m28.426 13.629h-16.798c-.98 0-1.774-.794-1.774-1.774v-.077c0-.98.794-1.774 1.774-1.774h16.798c.98 0 1.774.794 1.774 1.774v.077c0 .98-.794 1.774-1.774 1.774z"/><path d="m28.588 10.075c0-.021 0-.042 0-.063-.028-3.671-2.36-6.799-5.623-7.997"/><path d="m17.089 1.994c-3.29 1.184-5.651 4.326-5.672 8.025v.056"/><path d="m17.087 6.82v-5.114c0-.424.344-.768.768-.768h4.345c.424 0 .768.344.768.768v5.114"/><path d="m27.414 13.629s.6 8.068-6.507 10.819c-.602.233-1.265.233-1.867 0-7.108-2.751-6.507-10.819-6.507-10.819"/><path d="m15.559 26.172v-3.349"/><path d="m24.441 26.172v-3.587"/><path d="m9.853 38.943v-12.359"/><path d="m13.433 26.006v10.196"/><path d="m26.623 36.202v-10.196"/><path d="m30.202 26.605v12.338"/><path d="m27.309 16.84h.582c.407 0 .776-.183 1.041-.472s.433-.691.433-1.134c0-.888-.66-1.606-1.474-1.606h-.188-.103-15.248-.188c-.407 0-.776.183-1.041.472s-.433.691-.433 1.134c0 .888.66 1.606 1.474 1.606h.479"/><path d="m18.018 19.481c1.361.922 2.76.872 4.192 0"/></g></svg>