<svg enable-background="new 0 0 41 40" viewBox="0 0 41 40" xmlns="http://www.w3.org/2000/svg"><g style="fill:none;stroke:#1c2754;stroke-width:1.5;stroke-linecap:round;stroke-linejoin:round;stroke-miterlimit:10"><path d="m7.264 4.427v29.156 5.529h2.698c.782 0 1.416-.634 1.416-1.416v-4.114h17.246v4.114c0 .782.634 1.416 1.416 1.416h2.698v-5.529-29.156z"/><path d="m11.913 4.427h-4.65v-3.54h2.781c.675 0 1.256.476 1.388 1.138z"/><path d="m28.087 4.427h4.65v-3.54h-2.781c-.675 0-1.256.476-1.388 1.138z"/><path d="m16.859 35.77v-2.186h-2.021v2.186.606c0 .782.634 1.416 1.416 1.416h.606 1.762v-2.022z"/><path d="m18.62 35.519h1.5v2.516h-1.5z"/><path d="m15.354 2.657h9.533v1.77h-9.533z"/></g></svg>