<svg enable-background="new 0 0 41 40" viewBox="0 0 41 40" xmlns="http://www.w3.org/2000/svg"><g style="fill:none;stroke:#1e2857;stroke-width:1.5;stroke-linecap:round;stroke-linejoin:round;stroke-miterlimit:10"><path d="m28.277 27.987c0 3.144 5.692 11.175 5.692 11.175s5.692-8.031 5.692-11.175-2.549-5.692-5.692-5.692-5.692 2.549-5.692 5.692z"/><circle cx="33.97" cy="27.987" r="2.485"/><path d="m21.317 8.843h6.376c3.092 0 5.598 2.506 5.598 5.598 0 3.092-2.506 5.598-5.598 5.598h-13.46c-3.092 0-5.598 2.506-5.598 5.598 0 3.092 2.506 5.598 5.598 5.598h9.48"/><circle cx="9.263" cy="8.763" r="7.846"/><path d="m5.174 8.803h7.896"/><path d="m9.891 11.982 3.179-3.179-3.179-3.179"/></g></svg>